<mxfile host="65bd71144e">
    <diagram id="0o75jkomX_azVk-G3Yqs" name="ページ1">
        <mxGraphModel dx="1194" dy="543" grid="1" gridSize="10" guides="1" tooltips="1" connect="1" arrows="1" fold="1" page="1" pageScale="1" pageWidth="827" pageHeight="1169" background="#FFFFFF" math="0" shadow="0">
            <root>
                <mxCell id="0"/>
                <mxCell id="1" parent="0"/>
                <mxCell id="6" style="edgeStyle=none;html=1;fillColor=#008a00;strokeColor=#005700;strokeWidth=3;" edge="1" parent="1" source="2">
                    <mxGeometry relative="1" as="geometry">
                        <mxPoint x="250" y="300" as="targetPoint"/>
                    </mxGeometry>
                </mxCell>
                <mxCell id="2" value="client" style="aspect=fixed;perimeter=ellipsePerimeter;html=1;align=center;shadow=0;dashed=0;spacingTop=3;image;image=img/lib/active_directory/laptop_client.svg;" vertex="1" parent="1">
                    <mxGeometry x="40" y="260" width="72" height="80" as="geometry"/>
                </mxCell>
                <mxCell id="9" style="edgeStyle=none;html=1;fillColor=#008a00;strokeColor=#005700;strokeWidth=3;" edge="1" parent="1" source="7" target="8">
                    <mxGeometry relative="1" as="geometry"/>
                </mxCell>
                <mxCell id="19" style="edgeStyle=none;html=1;fillColor=#008a00;strokeColor=#005700;strokeWidth=3;" edge="1" parent="1" source="7" target="18">
                    <mxGeometry relative="1" as="geometry"/>
                </mxCell>
                <mxCell id="7" value="Amazon API Gateway" style="sketch=0;outlineConnect=0;fontColor=#232F3E;gradientColor=none;strokeColor=#ffffff;fillColor=#232F3E;dashed=0;verticalLabelPosition=middle;verticalAlign=bottom;align=center;html=1;whiteSpace=wrap;fontSize=10;fontStyle=1;spacing=3;shape=mxgraph.aws4.productIcon;prIcon=mxgraph.aws4.api_gateway;" vertex="1" parent="1">
                    <mxGeometry x="250" y="245" width="80" height="110" as="geometry"/>
                </mxCell>
                <mxCell id="14" style="edgeStyle=none;html=1;fillColor=#008a00;strokeColor=#005700;strokeWidth=3;" edge="1" parent="1" source="8" target="11">
                    <mxGeometry relative="1" as="geometry"/>
                </mxCell>
                <mxCell id="25" style="edgeStyle=none;html=1;strokeWidth=3;fillColor=#008a00;strokeColor=#005700;" edge="1" parent="1" source="8">
                    <mxGeometry relative="1" as="geometry">
                        <mxPoint x="280" y="240" as="targetPoint"/>
                        <Array as="points">
                            <mxPoint x="280" y="185"/>
                        </Array>
                    </mxGeometry>
                </mxCell>
                <mxCell id="8" value="getItems Lambda" style="sketch=0;outlineConnect=0;fontColor=#232F3E;gradientColor=none;strokeColor=#ffffff;fillColor=#232F3E;dashed=0;verticalLabelPosition=middle;verticalAlign=bottom;align=center;html=1;whiteSpace=wrap;fontSize=10;fontStyle=1;spacing=3;shape=mxgraph.aws4.productIcon;prIcon=mxgraph.aws4.lambda;" vertex="1" parent="1">
                    <mxGeometry x="390" y="130" width="90" height="110" as="geometry"/>
                </mxCell>
                <mxCell id="17" style="edgeStyle=none;html=1;fillColor=#008a00;strokeColor=#005700;strokeWidth=3;" edge="1" parent="1" source="11">
                    <mxGeometry relative="1" as="geometry">
                        <mxPoint x="490" y="180" as="targetPoint"/>
                        <Array as="points">
                            <mxPoint x="650" y="180"/>
                        </Array>
                    </mxGeometry>
                </mxCell>
                <mxCell id="21" style="edgeStyle=none;html=1;fillColor=#008a00;strokeColor=#005700;strokeWidth=3;" edge="1" parent="1" source="11" target="18">
                    <mxGeometry relative="1" as="geometry">
                        <Array as="points">
                            <mxPoint x="650" y="420"/>
                        </Array>
                    </mxGeometry>
                </mxCell>
                <mxCell id="11" value="Amazon DynamoDB" style="sketch=0;outlineConnect=0;fontColor=#232F3E;gradientColor=none;strokeColor=#ffffff;fillColor=#232F3E;dashed=0;verticalLabelPosition=middle;verticalAlign=bottom;align=center;html=1;whiteSpace=wrap;fontSize=10;fontStyle=1;spacing=3;shape=mxgraph.aws4.productIcon;prIcon=mxgraph.aws4.dynamodb;" vertex="1" parent="1">
                    <mxGeometry x="610" y="240" width="80" height="110" as="geometry"/>
                </mxCell>
                <mxCell id="20" style="edgeStyle=none;html=1;fillColor=#008a00;strokeColor=#005700;strokeWidth=3;" edge="1" parent="1" source="18" target="11">
                    <mxGeometry relative="1" as="geometry"/>
                </mxCell>
                <mxCell id="26" style="edgeStyle=none;html=1;strokeWidth=3;fillColor=#008a00;strokeColor=#005700;" edge="1" parent="1" source="18">
                    <mxGeometry relative="1" as="geometry">
                        <mxPoint x="290" y="360" as="targetPoint"/>
                        <Array as="points">
                            <mxPoint x="290" y="420"/>
                        </Array>
                    </mxGeometry>
                </mxCell>
                <mxCell id="18" value="insertItems Lambda" style="sketch=0;outlineConnect=0;fontColor=#232F3E;gradientColor=none;strokeColor=#ffffff;fillColor=#232F3E;dashed=0;verticalLabelPosition=middle;verticalAlign=bottom;align=center;html=1;whiteSpace=wrap;fontSize=10;fontStyle=1;spacing=3;shape=mxgraph.aws4.productIcon;prIcon=mxgraph.aws4.lambda;" vertex="1" parent="1">
                    <mxGeometry x="390" y="360" width="90" height="120" as="geometry"/>
                </mxCell>
            </root>
        </mxGraphModel>
    </diagram>
</mxfile>